# Blender v2.78 (sub 0) OBJ File: ''
# www.blender.org
mtllib arrow.mtl
o Cone
v 1.464342 0.627115 -0.326955
v 1.464081 0.609038 -0.320874
v 1.463830 0.591655 -0.302862
v 1.463598 0.575635 -0.273612
v 1.463396 0.561593 -0.234249
v 1.463229 0.550070 -0.186285
v 1.463106 0.541507 -0.131562
v 1.463030 0.536234 -0.072186
v 1.463004 0.534453 -0.010436
v 2.097255 0.617977 -0.010436
v 1.463030 0.536234 0.051314
v 1.463106 0.541507 0.110691
v 1.463229 0.550070 0.165414
v 1.463396 0.561593 0.213378
v 1.463598 0.575635 0.252741
v 1.463830 0.591655 0.281991
v 1.464081 0.609038 0.300003
v 1.464342 0.627115 0.306084
v 1.464603 0.645193 0.300003
v 1.464854 0.662575 0.281991
v 1.465085 0.678595 0.252741
v 1.465288 0.692637 0.213378
v 1.465454 0.704161 0.165413
v 1.465578 0.712723 0.110691
v 1.465654 0.717996 0.051314
v 1.465680 0.719777 -0.010436
v 1.465654 0.717996 -0.072186
v 1.465578 0.712723 -0.131563
v 1.465454 0.704160 -0.186285
v 1.465288 0.692637 -0.234249
v 1.465085 0.678595 -0.273612
v 1.464854 0.662575 -0.302862
v 1.464603 0.645192 -0.320874
v 1.416783 0.627802 -0.095724
v 1.416713 0.622931 -0.094085
v 1.416645 0.618247 -0.089232
v 1.416583 0.613930 -0.081350
v 1.416528 0.610147 -0.070744
v 1.416483 0.607041 -0.057819
v 1.416450 0.604734 -0.043074
v 1.416429 0.603313 -0.027075
v 1.416422 0.602834 -0.010436
v 1.416429 0.603313 0.006203
v 1.416450 0.604734 0.022203
v 1.416483 0.607041 0.036948
v 1.416528 0.610147 0.049872
v 1.416583 0.613930 0.060479
v 1.416645 0.618247 0.068361
v 1.416713 0.622931 0.073214
v 1.416783 0.627802 0.074853
v 1.416853 0.632673 0.073214
v 1.416921 0.637357 0.068361
v 1.416983 0.641673 0.060479
v 1.417038 0.645457 0.049872
v 1.417083 0.648562 0.036948
v 1.417116 0.650869 0.022203
v 1.417136 0.652290 0.006203
v 1.417143 0.652770 -0.010436
v 1.417136 0.652290 -0.027075
v 1.417116 0.650869 -0.043074
v 1.417083 0.648562 -0.057819
v 1.417038 0.645457 -0.070744
v 1.416983 0.641673 -0.081350
v 1.416921 0.637357 -0.089232
v 1.416853 0.632673 -0.094085
v 0.806726 0.636610 -0.095724
v 0.806656 0.631739 -0.094085
v 0.806588 0.627055 -0.089232
v 0.806526 0.622738 -0.081350
v 0.806472 0.618955 -0.070744
v 0.806427 0.615850 -0.057819
v 0.806393 0.613542 -0.043074
v 0.806373 0.612122 -0.027075
v 0.806366 0.611642 -0.010436
v 0.806373 0.612122 0.006203
v 0.806393 0.613542 0.022203
v 0.806427 0.615850 0.036948
v 0.806472 0.618955 0.049872
v 0.806526 0.622738 0.060479
v 0.806588 0.627055 0.068361
v 0.806656 0.631739 0.073214
v 0.806726 0.636610 0.074853
v 0.806797 0.641481 0.073214
v 0.806864 0.646165 0.068361
v 0.806927 0.650482 0.060479
v 0.806981 0.654265 0.049872
v 0.807026 0.657370 0.036948
v 0.807060 0.659678 0.022203
v 0.807080 0.661099 0.006203
v 0.807087 0.661578 -0.010436
v 0.807080 0.661099 -0.027075
v 0.807060 0.659678 -0.043074
v 0.807026 0.657370 -0.057819
v 0.806981 0.654265 -0.070744
v 0.806927 0.650482 -0.081350
v 0.806864 0.646165 -0.089232
v 0.806797 0.641481 -0.094085
v 0.013793 0.648059 -0.095724
v 0.013723 0.643188 -0.094085
v 0.013656 0.638504 -0.089232
v 0.013593 0.634187 -0.081350
v 0.013539 0.630403 -0.070744
v 0.013494 0.627298 -0.057819
v 0.013460 0.624991 -0.043074
v 0.013440 0.623570 -0.027075
v 0.013433 0.623090 -0.010436
v 0.013440 0.623570 0.006203
v 0.013460 0.624991 0.022203
v 0.013494 0.627298 0.036948
v 0.013539 0.630403 0.049872
v 0.013593 0.634187 0.060479
v 0.013656 0.638504 0.068361
v 0.013723 0.643188 0.073214
v 0.013793 0.648059 0.074853
v 0.013864 0.652930 0.073214
v 0.013931 0.657614 0.068361
v 0.013994 0.661930 0.060479
v 0.014048 0.665714 0.049872
v 0.014093 0.668819 0.036948
v 0.014127 0.671126 0.022203
v 0.014147 0.672547 0.006203
v 0.014154 0.673027 -0.010436
v 0.014147 0.672547 -0.027075
v 0.014127 0.671126 -0.043074
v 0.014093 0.668819 -0.057819
v 0.014048 0.665714 -0.070744
v 0.013994 0.661930 -0.081350
v 0.013931 0.657614 -0.089232
v 0.013864 0.652930 -0.094085
vn 0.4241 -0.2943 -0.8565
vn 0.3299 -0.6816 -0.6532
vn 0.2494 -0.8502 -0.4637
vn 0.1981 -0.9235 -0.3284
vn 0.1664 -0.9589 -0.2298
vn 0.1470 -0.9773 -0.1526
vn 0.1357 -0.9869 -0.0875
vn 0.1305 -0.9910 -0.0285
vn 0.1305 -0.9910 0.0285
vn 0.1357 -0.9869 0.0875
vn 0.1470 -0.9773 0.1526
vn 0.1664 -0.9589 0.2298
vn 0.1981 -0.9235 0.3284
vn 0.2494 -0.8502 0.4637
vn 0.3299 -0.6816 0.6532
vn 0.4241 -0.2943 0.8565
vn 0.4324 0.2819 0.8565
vn 0.3494 0.6718 0.6532
vn 0.2738 0.8426 0.4637
vn 0.2247 0.9174 0.3284
vn 0.1941 0.9537 0.2298
vn 0.1751 0.9726 0.1526
vn 0.1641 0.9826 0.0875
vn 0.1591 0.9869 0.0285
vn 0.1591 0.9869 -0.0285
vn 0.1641 0.9826 -0.0875
vn 0.1751 0.9726 -0.1526
vn 0.1941 0.9537 -0.2298
vn 0.2247 0.9174 -0.3284
vn 0.2738 0.8426 -0.4637
vn 0.3494 0.6718 -0.6532
vn 0.4324 0.2819 -0.8565
vn -0.9762 0.0817 -0.2010
vn 0.0143 0.9879 -0.1546
vn -0.8097 0.5865 -0.0166
vn -0.8788 -0.4632 0.1143
vn -0.8535 -0.5145 -0.0824
vn -0.9304 0.3246 0.1704
vn -0.8195 0.5710 -0.0497
vn -0.9088 -0.3914 0.1443
vn -0.8356 -0.5471 -0.0497
vn -0.8972 0.4175 0.1443
vn -0.9781 -0.0535 -0.2010
vn -0.8383 0.5389 -0.0824
vn -0.9393 -0.2976 0.1704
vn -0.8263 -0.5629 -0.0166
vn -0.8651 0.4884 0.1143
vn -0.8651 0.4884 -0.1143
vn -0.9645 -0.1832 -0.1902
vn -0.9645 -0.1832 0.1902
vn -0.8383 0.5389 0.0824
vn -0.8972 0.4175 -0.1443
vn -0.8263 -0.5629 0.0166
vn -0.9393 -0.2976 -0.1704
vn -0.9781 -0.0535 0.2010
vn -0.8195 0.5710 0.0497
vn -0.9304 0.3246 -0.1704
vn -0.8356 -0.5471 0.0497
vn -0.9088 -0.3914 -0.1443
vn -0.9762 0.0817 0.2010
vn -0.8097 0.5865 0.0166
vn -0.9588 0.2110 -0.1902
vn -0.8535 -0.5145 0.0824
vn -0.8788 -0.4632 -0.1143
vn -0.9588 0.2110 0.1902
vn -0.0127 -0.8770 -0.4804
vn -0.0127 -0.8770 0.4804
vn -0.0046 -0.3188 -0.9478
vn 0.0140 0.9722 -0.2336
vn -0.0104 -0.7195 0.6945
vn -0.0104 -0.7195 -0.6945
vn 0.0136 0.9418 -0.3360
vn -0.0046 -0.3188 0.9478
vn 0.0127 0.8770 -0.4804
vn 0.0046 0.3188 0.9478
vn -0.0136 -0.9418 -0.3360
vn 0.0104 0.7195 -0.6945
vn 0.0104 0.7194 0.6945
vn -0.0140 -0.9722 -0.2336
vn 0.0046 0.3188 -0.9478
vn 0.0127 0.8770 0.4804
vn -0.0143 -0.9879 -0.1546
vn 0.0136 0.9418 0.3360
vn -0.0144 -0.9960 -0.0885
vn 0.0140 0.9722 0.2336
vn -0.0144 -0.9995 -0.0288
vn 0.0143 0.9879 0.1546
vn -0.0144 -0.9995 0.0288
vn 0.0144 0.9960 0.0885
vn -0.0144 -0.9960 0.0885
vn 0.0144 0.9995 0.0288
vn -0.0143 -0.9879 0.1546
vn 0.0144 0.9995 -0.0288
vn -0.0140 -0.9722 0.2336
vn 0.0144 0.9960 -0.0885
vn -0.0136 -0.9418 0.3360
vn -0.9999 0.0144 -0.0000
vn 0.0104 0.7194 -0.6945
vn -0.0104 -0.7194 0.6945
usemtl None
s off
f 1//1 10//1 2//1
f 2//2 10//2 3//2
f 3//3 10//3 4//3
f 4//4 10//4 5//4
f 5//5 10//5 6//5
f 6//6 10//6 7//6
f 7//7 10//7 8//7
f 8//8 10//8 9//8
f 9//9 10//9 11//9
f 11//10 10//10 12//10
f 12//11 10//11 13//11
f 13//12 10//12 14//12
f 14//13 10//13 15//13
f 15//14 10//14 16//14
f 16//15 10//15 17//15
f 17//16 10//16 18//16
f 18//17 10//17 19//17
f 19//18 10//18 20//18
f 20//19 10//19 21//19
f 21//20 10//20 22//20
f 22//21 10//21 23//21
f 23//22 10//22 24//22
f 24//23 10//23 25//23
f 25//24 10//24 26//24
f 26//25 10//25 27//25
f 27//26 10//26 28//26
f 28//27 10//27 29//27
f 29//28 10//28 30//28
f 30//29 10//29 31//29
f 31//30 10//30 32//30
f 32//31 10//31 33//31
f 33//32 10//32 1//32
f 33//33 1//33 34//33 65//33
f 60//34 61//34 93//34 92//34
f 26//35 27//35 59//35 58//35
f 13//36 14//36 46//36 45//36
f 6//37 7//37 40//37 39//37
f 20//38 21//38 53//38 52//38
f 27//39 28//39 60//39 59//39
f 14//40 15//40 47//40 46//40
f 7//41 8//41 41//41 40//41
f 21//42 22//42 54//42 53//42
f 1//43 2//43 35//43 34//43
f 28//44 29//44 61//44 60//44
f 15//45 16//45 48//45 47//45
f 8//46 9//46 42//46 41//46
f 22//47 23//47 55//47 54//47
f 29//48 30//48 62//48 61//48
f 2//49 3//49 36//49 35//49
f 16//50 17//50 49//50 48//50
f 23//51 24//51 56//51 55//51
f 30//52 31//52 63//52 62//52
f 9//53 11//53 43//53 42//53
f 3//54 4//54 37//54 36//54
f 17//55 18//55 50//55 49//55
f 24//56 25//56 57//56 56//56
f 31//57 32//57 64//57 63//57
f 11//58 12//58 44//58 43//58
f 4//59 5//59 38//59 37//59
f 18//60 19//60 51//60 50//60
f 25//61 26//61 58//61 57//61
f 32//62 33//62 65//62 64//62
f 12//63 13//63 45//63 44//63
f 5//64 6//64 39//64 38//64
f 19//65 20//65 52//65 51//65
f 68//66 69//66 101//66 100//66
f 47//67 48//67 80//67 79//67
f 34//68 35//68 67//68 66//68
f 61//69 62//69 94//69 93//69
f 48//70 49//70 81//70 80//70
f 35//71 36//71 68//71 67//71
f 62//72 63//72 95//72 94//72
f 49//73 50//73 82//73 81//73
f 36//66 37//66 69//66 68//66
f 63//74 64//74 96//74 95//74
f 50//75 51//75 83//75 82//75
f 37//76 38//76 70//76 69//76
f 64//77 65//77 97//77 96//77
f 51//78 52//78 84//78 83//78
f 38//79 39//79 71//79 70//79
f 65//80 34//80 66//80 97//80
f 52//81 53//81 85//81 84//81
f 39//82 40//82 72//82 71//82
f 53//83 54//83 86//83 85//83
f 40//84 41//84 73//84 72//84
f 54//85 55//85 87//85 86//85
f 41//86 42//86 74//86 73//86
f 55//87 56//87 88//87 87//87
f 42//88 43//88 75//88 74//88
f 56//89 57//89 89//89 88//89
f 43//90 44//90 76//90 75//90
f 57//91 58//91 90//91 89//91
f 44//92 45//92 77//92 76//92
f 58//93 59//93 91//93 90//93
f 45//94 46//94 78//94 77//94
f 59//95 60//95 92//95 91//95
f 46//96 47//96 79//96 78//96
f 98//97 99//97 100//97 101//97 102//97 103//97 104//97 105//97 106//97 107//97 108//97 109//97 110//97 111//97 112//97 113//97 114//97 115//97 116//97 117//97 118//97 119//97 120//97 121//97 122//97 123//97 124//97 125//97 126//97 127//97 128//97 129//97
f 95//74 96//74 128//74 127//74
f 82//75 83//75 115//75 114//75
f 69//76 70//76 102//76 101//76
f 96//98 97//98 129//98 128//98
f 83//78 84//78 116//78 115//78
f 70//79 71//79 103//79 102//79
f 97//80 66//80 98//80 129//80
f 84//81 85//81 117//81 116//81
f 71//82 72//82 104//82 103//82
f 85//83 86//83 118//83 117//83
f 72//84 73//84 105//84 104//84
f 86//85 87//85 119//85 118//85
f 73//86 74//86 106//86 105//86
f 87//87 88//87 120//87 119//87
f 74//88 75//88 107//88 106//88
f 88//89 89//89 121//89 120//89
f 75//90 76//90 108//90 107//90
f 89//91 90//91 122//91 121//91
f 76//92 77//92 109//92 108//92
f 90//93 91//93 123//93 122//93
f 77//94 78//94 110//94 109//94
f 91//95 92//95 124//95 123//95
f 78//96 79//96 111//96 110//96
f 92//34 93//34 125//34 124//34
f 79//67 80//67 112//67 111//67
f 66//68 67//68 99//68 98//68
f 93//69 94//69 126//69 125//69
f 80//99 81//99 113//99 112//99
f 67//71 68//71 100//71 99//71
f 94//72 95//72 127//72 126//72
f 81//73 82//73 114//73 113//73
