# Blender v2.78 (sub 0) OBJ File: ''
# www.blender.org
mtllib BOOKCASE.mtl
o ChestMesh_Cube.002
v 0.779536 3.040181 0.785292
v 0.768533 0.039475 0.785292
v 0.779536 3.040181 -0.936873
v 0.768533 0.039475 -0.936873
v -0.768295 3.045856 0.785292
v -0.779297 0.045150 0.785292
v -0.768295 3.045856 -0.936873
v -0.779297 0.045150 -0.936873
v 0.769417 0.280526 0.785292
v 0.769417 0.280526 -0.936873
v -0.778413 0.286201 -0.936873
v -0.778413 0.286201 0.785292
v 0.779069 2.912846 -0.936873
v -0.768762 2.918522 -0.936873
v -0.768762 2.918522 0.785292
v 0.779069 2.912846 0.785292
v 0.617188 3.040776 -0.936873
v 0.606185 0.040070 -0.936873
v 0.617188 3.040776 0.785292
v 0.606185 0.040070 0.785292
v 0.607069 0.281121 0.785292
v 0.607069 0.281121 -0.936873
v 0.616721 2.913442 -0.936873
v 0.616721 2.913442 0.785292
v -0.595676 0.044477 -0.936873
v -0.584673 3.045183 0.785292
v -0.594792 0.285528 -0.936873
v -0.585140 2.917848 -0.936873
v -0.584673 3.045183 -0.936873
v -0.595676 0.044477 0.785292
v -0.594792 0.285528 0.785292
v -0.585140 2.917848 0.785292
v 0.775109 1.832970 0.785292
v 0.775109 1.832970 -0.936873
v -0.772721 1.838646 -0.936873
v -0.772721 1.838646 0.785292
v 0.612761 1.833566 -0.936873
v 0.612761 1.833566 0.785292
v -0.589099 1.837973 0.785292
v -0.589099 1.837973 -0.936873
v 0.774587 1.690655 0.785292
v 0.774587 1.690655 -0.936873
v -0.773243 1.696330 -0.936873
v -0.773243 1.696330 0.785292
v 0.612239 1.691250 -0.936873
v 0.612239 1.691250 0.785292
v -0.589621 1.695657 0.785292
v -0.589621 1.695657 -0.936873
v 0.612761 1.833566 -0.548351
v 0.616721 2.913442 -0.548351
v 0.607069 0.281121 -0.548351
v -0.594792 0.285528 -0.548351
v -0.585140 2.917848 -0.548351
v -0.589099 1.837973 -0.548351
v 0.612239 1.691250 -0.548351
v -0.589621 1.695657 -0.548351
v 0.612761 1.833566 -0.000582
v 0.616721 2.913442 -0.000582
v 0.607069 0.281121 -0.000582
v -0.594792 0.285528 -0.000582
v -0.585140 2.917848 -0.000582
v -0.589099 1.837973 -0.000582
v 0.612239 1.691250 -0.000582
v -0.589621 1.695657 -0.000582
v 0.779536 3.040181 0.785292
v 0.768533 0.039475 0.785292
v 0.779536 3.040181 -0.936873
v 0.768533 0.039475 -0.936873
v 0.769417 0.280526 0.785292
v 0.769417 0.280526 -0.936873
v 0.779069 2.912846 -0.936873
v 0.779069 2.912846 0.785292
v 0.775109 1.832970 0.785292
v 0.775109 1.832970 -0.936873
v 0.774587 1.690655 0.785292
v 0.774587 1.690655 -0.936873
vt 0.6690 0.3915
vt 0.6692 0.3394
vt 0.7089 0.3395
vt 0.7087 0.3917
vt 0.0025 0.0834
vt 0.0025 0.0363
vt 0.3386 0.0363
vt 0.3386 0.0834
vt 0.0668 0.0824
vt 0.0670 0.0353
vt 0.0353 0.0352
vt 0.0352 0.0823
vt 0.3114 0.6494
vt 0.3519 0.6494
vt 0.3519 0.9912
vt 0.3114 0.9912
vt 0.3513 0.9554
vt 0.3513 0.9912
vt 0.0094 0.9912
vt 0.0094 0.9554
vt 0.0658 0.3576
vt 0.0341 0.3575
vt 0.0025 0.3586
vt 0.3386 0.3586
vt 0.6678 0.6965
vt 0.7076 0.6967
vt 0.6668 0.9884
vt 0.6669 0.9608
vt 0.7066 0.9610
vt 0.7065 0.9885
vt 0.0025 0.6219
vt 0.0025 0.5971
vt 0.3386 0.5971
vt 0.3386 0.6219
vt 0.0649 0.6209
vt 0.0650 0.5961
vt 0.0333 0.5960
vt 0.0332 0.6208
vt 0.2994 0.6218
vt 0.2995 0.5969
vt 0.3717 0.9873
vt 0.3718 0.9598
vt 0.4069 0.9599
vt 0.4068 0.9874
vt 0.3728 0.6954
vt 0.3739 0.3904
vt 0.4090 0.3906
vt 0.4079 0.6956
vt 0.3004 0.3584
vt 0.3014 0.0832
vt 0.3513 0.6899
vt 0.0094 0.6899
vt 0.0101 0.6494
vt 0.0459 0.6494
vt 0.0459 0.9912
vt 0.0101 0.9912
vt 0.3016 0.0362
vt 0.3741 0.3383
vt 0.4092 0.3384
vt 0.3372 0.0834
vt 0.3374 0.0363
vt 0.3513 0.6494
vt 0.0094 0.6494
vt 0.3362 0.3586
vt 0.3352 0.6219
vt 0.3353 0.5971
vt 0.7928 0.4771
vt 0.7928 0.6840
vt 0.8672 0.6840
vt 0.8672 0.4771
vt 1.3794 0.2736
vt 1.0189 0.2736
vt 1.0189 0.1689
vt 1.3794 0.1689
vt 0.3361 0.3863
vt 0.3003 0.3862
vt 0.0657 0.3853
vt 0.3727 0.7262
vt 0.4078 0.7263
vt 0.6677 0.7273
vt 0.7074 0.7274
vt 0.0025 0.3863
vt 0.3386 0.3863
vt 0.0340 0.3852
vt 0.3761 0.1914
vt 0.6136 0.1914
vt 0.6136 0.2887
vt 0.3761 0.2887
vt 0.8710 0.6870
vt 0.8710 0.4801
vt 0.9759 0.4801
vt 0.9759 0.6870
vt 0.7888 0.7015
vt 0.7888 0.9815
vt 0.8660 0.9815
vt 0.8660 0.7015
vt 0.6129 0.2896
vt 0.3755 0.2895
vt 0.3755 0.2205
vt 0.6130 0.2206
vt 0.7908 0.9807
vt 0.7908 0.7006
vt 0.8680 0.7006
vt 0.8680 0.9807
vt 1.0164 0.0175
vt 1.3769 0.0175
vt 1.3769 0.1223
vt 1.0164 0.1223
vt 0.3761 0.1224
vt 0.6136 0.1224
vt 0.7965 0.6870
vt 0.7965 0.4801
vt 0.4227 0.6806
vt 0.4237 0.4094
vt 0.6548 0.4101
vt 0.6538 0.6813
vt 0.4233 0.9459
vt 0.4241 0.7436
vt 0.6493 0.7443
vt 0.6485 0.9466
vt 0.9768 0.7006
vt 0.9768 0.9807
vt 1.3769 0.2699
vt 1.0164 0.2699
vt 0.3756 0.1233
vt 0.6130 0.1234
vt 0.9722 0.6840
vt 0.9722 0.4771
vt 1.0189 0.0212
vt 1.3794 0.0212
vt 0.9748 0.9815
vt 0.9748 0.7015
vt 0.0051 0.0813
vt 0.0051 0.0350
vt 0.3361 0.0350
vt 0.3361 0.0813
vt 0.0051 0.3524
vt 0.3361 0.3524
vt 0.0051 0.6117
vt 0.0051 0.5873
vt 0.3361 0.5873
vt 0.3361 0.6117
vt 0.0051 0.3797
vt 0.3361 0.3797
vn 0.0000 0.0000 -1.0000
vn -1.0000 0.0037 0.0000
vn 0.0000 0.0000 1.0000
vn 0.0037 1.0000 0.0000
vn -0.0037 -1.0000 0.0000
vn 1.0000 -0.0037 0.0000
usemtl None
s off
f 27/1/1 25/2/1 8/3/1 11/4/1
f 11/5/2 8/6/2 6/7/2 12/8/2
f 21/9/3 20/10/3 2/11/3 9/12/3
f 29/13/4 7/14/4 5/15/4 26/16/4
f 18/17/5 4/18/5 2/19/5 20/20/5
f 46/21/3 21/9/3 9/12/3 41/22/3
f 43/23/2 11/5/2 12/8/2 44/24/2
f 48/25/1 27/1/1 11/4/1 43/26/1
f 29/27/1 28/28/1 14/29/1 7/30/1
f 7/31/2 14/32/2 15/33/2 5/34/2
f 19/35/3 24/36/3 16/37/3 1/38/3
f 26/39/3 32/40/3 24/36/3 19/35/3
f 3/41/1 13/42/1 23/43/1 17/44/1
f 42/45/1 10/46/1 22/47/1 45/48/1
f 47/49/3 31/50/3 21/9/3 46/21/3
f 25/51/5 18/17/5 20/20/5 30/52/5
f 3/53/4 17/54/4 19/55/4 1/56/4
f 31/50/3 30/57/3 20/10/3 21/9/3
f 10/46/1 4/58/1 18/59/1 22/47/1
f 12/60/3 6/61/3 30/57/3 31/50/3
f 8/62/5 25/51/5 30/52/5 6/63/5
f 44/64/3 12/60/3 31/50/3 47/49/3
f 5/65/3 15/66/3 32/40/3 26/39/3
f 17/44/1 23/43/1 28/28/1 29/27/1
f 23/67/2 37/68/2 49/69/2 50/70/2
f 17/54/4 29/13/4 26/16/4 19/55/4
f 22/47/1 18/59/1 25/2/1 27/1/1
f 48/71/5 45/72/5 55/73/5 56/74/5
f 15/66/3 36/75/3 39/76/3 32/40/3
f 32/40/3 39/76/3 38/77/3 24/36/3
f 13/42/1 34/78/1 37/79/1 23/43/1
f 28/28/1 40/80/1 35/81/1 14/29/1
f 14/32/2 35/82/2 36/83/2 15/33/2
f 24/36/3 38/77/3 33/84/3 16/37/3
f 37/79/1 45/48/1 48/25/1 40/80/1
f 36/75/3 44/64/3 47/49/3 39/76/3
f 39/76/3 47/49/3 46/21/3 38/77/3
f 34/78/1 42/45/1 45/48/1 37/79/1
f 40/80/1 48/25/1 43/26/1 35/81/1
f 35/82/2 43/23/2 44/24/2 36/83/2
f 38/77/3 46/21/3 41/22/3 33/84/3
f 51/85/4 52/86/4 60/87/4 59/88/4
f 54/89/6 53/90/6 61/91/6 62/92/6
f 45/93/2 22/94/2 51/95/2 55/96/2
f 28/97/5 23/98/5 50/99/5 53/100/5
f 27/101/6 48/102/6 56/103/6 52/104/6
f 37/105/4 40/106/4 54/107/4 49/108/4
f 22/109/4 27/110/4 52/86/4 51/85/4
f 40/111/6 28/112/6 53/90/6 54/89/6
f 63/113/1 59/114/1 60/115/1 64/116/1
f 58/117/1 57/118/1 62/119/1 61/120/1
f 52/104/6 56/103/6 64/121/6 60/122/6
f 49/108/4 54/107/4 62/123/4 57/124/4
f 53/100/5 50/99/5 58/125/5 61/126/5
f 50/70/2 49/69/2 57/127/2 58/128/2
f 56/74/5 55/73/5 63/129/5 64/130/5
f 55/96/2 51/95/2 59/131/2 63/132/2
f 69/133/6 66/134/6 68/135/6 70/136/6
f 75/137/6 69/133/6 70/136/6 76/138/6
f 65/139/6 72/140/6 71/141/6 67/142/6
f 72/140/6 73/143/6 74/144/6 71/141/6
f 73/143/6 75/137/6 76/138/6 74/144/6
