# Blender v2.78 (sub 0) OBJ File: 'bookfbx.blend'
# www.blender.org
mtllib fridgeFbx.mtl
o Fridge_Cube
v -0.805157 0.047315 0.748952
v -0.805157 2.627120 0.748952
v -0.805157 0.047315 -0.860459
v -0.805157 2.627120 -0.860459
v 0.793514 0.047315 0.748952
v 0.793514 2.627120 0.748952
v 0.793514 0.047315 -0.860459
v 0.793514 2.627120 -0.860459
vt 0.9872 0.0287
vt 0.9872 0.4430
vt 0.7288 0.4430
vt 0.7288 0.0287
vt 0.0521 0.4450
vt 0.0521 0.9433
vt 0.3609 0.9433
vt 0.3609 0.4450
vt 0.7263 0.0345
vt 0.7263 0.4460
vt 0.9830 0.4460
vt 0.9830 0.0345
vt 0.6883 0.4470
vt 0.6883 0.9420
vt 0.3815 0.9420
vt 0.3815 0.4470
vt 0.3486 0.2718
vt 0.6067 0.2718
vt 0.6067 0.0119
vt 0.3486 0.0119
vt 0.6120 0.2720
vt 0.3451 0.2720
vt 0.3451 0.0032
vt 0.6120 0.0032
vn -1.0000 0.0000 0.0000
vn 0.0000 0.0000 -1.0000
vn 1.0000 0.0000 0.0000
vn 0.0000 0.0000 1.0000
vn 0.0000 -1.0000 0.0000
vn 0.0000 1.0000 0.0000
usemtl None
s off
f 1/1/1 2/2/1 4/3/1 3/4/1
f 3/5/2 4/6/2 8/7/2 7/8/2
f 7/9/3 8/10/3 6/11/3 5/12/3
f 5/13/4 6/14/4 2/15/4 1/16/4
f 3/17/5 7/18/5 5/19/5 1/20/5
f 8/21/6 4/22/6 2/23/6 6/24/6
