# Blender v2.78 (sub 0) OBJ File: ''
# www.blender.org
mtllib PIZZABASEOBJ.mtl
o Cube_Cube.001
v -0.609532 -0.008196 0.562262
v -0.609532 0.128254 0.562262
v -0.609532 -0.008196 -0.586095
v -0.609532 0.128254 -0.586095
v 0.707088 -0.008196 0.562262
v 0.707088 0.128254 0.562262
v 0.707088 -0.008196 -0.586095
v 0.707088 0.128254 -0.586095
vt 0.6481 0.8445
vt 0.6481 0.8975
vt 0.2020 0.8975
vt 0.2020 0.8445
vt 0.6880 0.7488
vt 0.6880 0.8010
vt 0.1849 0.8010
vt 0.1849 0.7488
vt 0.6485 0.8444
vt 0.6485 0.8971
vt 0.2052 0.8971
vt 0.2052 0.8444
vt 0.6837 0.7508
vt 0.6837 0.8021
vt 0.1889 0.8021
vt 0.1889 0.7508
vt 0.0152 0.0275
vt 0.3746 0.0275
vt 0.3746 0.3410
vt 0.0152 0.3410
vt 0.9906 0.7277
vt 0.4048 0.7277
vt 0.4048 0.2167
vt 0.9906 0.2167
vn -1.0000 0.0000 0.0000
vn 0.0000 0.0000 -1.0000
vn 1.0000 0.0000 0.0000
vn 0.0000 0.0000 1.0000
vn 0.0000 -1.0000 0.0000
vn 0.0000 1.0000 0.0000
usemtl None
s off
f 1/1/1 2/2/1 4/3/1 3/4/1
f 3/5/2 4/6/2 8/7/2 7/8/2
f 7/9/3 8/10/3 6/11/3 5/12/3
f 5/13/4 6/14/4 2/15/4 1/16/4
f 3/17/5 7/18/5 5/19/5 1/20/5
f 8/21/6 4/22/6 2/23/6 6/24/6
