# MagicaVoxel @ Ephtracy

# material
mtllib torrrrch.mtl
usemtl palette

# normals
vn -1 0 0
vn 1 0 0
vn 0 0 1
vn 0 0 -1
vn 0 -1 0
vn 0 1 0

# texcoords
vt 0.232422 0.5
vt 0.841797 0.5
vt 0.865234 0.5

# verts
v -20 16 -0
v -20 16 -1
v -20 17 1
v -20 17 -0
v -20 17 -1
v -20 17 -2
v -20 21 2
v -20 21 1
v -20 21 -2
v -20 21 -3
v -20 22 2
v -20 22 1
v -20 22 -3
v -20 23 2
v -20 23 1
v -20 23 -2
v -20 23 -3
v -20 24 2
v -20 24 1
v -20 24 -0
v -20 24 -1
v -20 24 -2
v -20 25 -0
v -20 25 -1
v -20 27 1
v -20 27 -0
v -20 28 -0
v -20 28 -1
v -18 23 -2
v -18 23 -3
v -18 24 -2
v -18 24 -3
v -17 25 -0
v -17 25 -1
v -17 26 -0
v -17 26 -1
v -19 16 -0
v -19 16 -1
v -19 17 1
v -19 17 -0
v -19 17 -1
v -19 17 -2
v -19 21 2
v -19 21 1
v -19 21 -0
v -19 21 -1
v -19 21 -2
v -19 21 -3
v -19 22 2
v -19 22 1
v -19 22 -2
v -19 22 -3
v -19 23 2
v -19 23 1
v -19 23 -2
v -19 23 -3
v -19 24 2
v -19 24 1
v -19 25 -0
v -19 25 -1
v -19 27 -0
v -19 27 -1
v -18 17 -0
v -18 17 -1
v -18 21 1
v -18 21 -0
v -18 21 -1
v -18 21 -2
v -18 22 1
v -18 22 -0
v -18 22 -1
v -18 22 -2
v -18 23 1
v -18 23 -0
v -18 23 -1
v -18 23 -2
v -18 26 1
v -18 26 -0
v -18 27 1
v -18 27 -0
v -18 27 -1
v -18 28 -0
v -18 28 -1
v -17 22 -0
v -17 22 -1
v -17 23 -0
v -17 23 -1
v -17 23 -2
v -17 23 -3
v -17 24 -2
v -17 24 -3
v -16 21 -0
v -16 21 -1
v -16 22 -0
v -16 22 -1
v -16 23 -0
v -16 23 -2
v -16 24 -1
v -16 24 -2
v -16 25 1
v -16 25 -0
v -16 26 1
v -16 26 -1
v -15 23 1
v -15 23 -0
v -15 25 1
v -15 25 -0
v -20 21 2
v -20 22 2
v -20 23 2
v -20 24 2
v -19 21 2
v -19 22 2
v -19 23 2
v -19 24 2
v -20 17 1
v -20 21 1
v -20 22 1
v -20 23 1
v -20 24 1
v -20 27 1
v -19 17 1
v -19 21 1
v -19 22 1
v -19 23 1
v -19 24 1
v -18 21 1
v -18 22 1
v -18 23 1
v -18 24 1
v -18 25 1
v -18 26 1
v -18 27 1
v -16 24 1
v -16 25 1
v -16 26 1
v -15 23 1
v -15 25 1
v -20 16 -0
v -20 17 -0
v -20 27 -0
v -20 28 -0
v -19 16 -0
v -19 17 -0
v -19 21 -0
v -18 17 -0
v -18 21 -0
v -18 22 -0
v -18 23 -0
v -18 27 -0
v -18 28 -0
v -17 22 -0
v -17 23 -0
v -16 21 -0
v -16 22 -0
v -19 25 -0
v -19 27 -0
v -18 26 -0
v -18 27 -0
v -17 25 -0
v -17 26 -0
v -16 23 -0
v -16 25 -0
v -15 23 -0
v -15 25 -0
v -20 16 -1
v -20 17 -1
v -20 24 -1
v -20 25 -1
v -20 28 -1
v -19 16 -1
v -19 17 -1
v -19 21 -1
v -19 25 -1
v -19 27 -1
v -18 17 -1
v -18 21 -1
v -18 22 -1
v -18 23 -1
v -18 27 -1
v -18 28 -1
v -17 22 -1
v -17 23 -1
v -17 24 -1
v -17 25 -1
v -17 26 -1
v -16 21 -1
v -16 22 -1
v -16 24 -1
v -16 26 -1
v -20 17 -2
v -20 21 -2
v -20 23 -2
v -20 24 -2
v -19 17 -2
v -19 21 -2
v -19 22 -2
v -19 23 -2
v -18 21 -2
v -18 22 -2
v -18 23 -2
v -18 24 -2
v -17 23 -2
v -17 24 -2
v -16 23 -2
v -16 24 -2
v -20 21 -3
v -20 22 -3
v -20 23 -3
v -19 21 -3
v -19 22 -3
v -19 23 -3
v -18 23 -3
v -18 24 -3
v -17 23 -3
v -17 24 -3
v -20 16 -0
v -19 16 -0
v -20 16 -1
v -19 16 -1
v -20 17 1
v -19 17 1
v -20 17 -0
v -19 17 -0
v -18 17 -0
v -20 17 -1
v -19 17 -1
v -18 17 -1
v -20 17 -2
v -19 17 -2
v -20 21 2
v -19 21 2
v -20 21 1
v -19 21 1
v -18 21 1
v -19 21 -0
v -18 21 -0
v -16 21 -0
v -19 21 -1
v -18 21 -1
v -16 21 -1
v -20 21 -2
v -19 21 -2
v -18 21 -2
v -20 21 -3
v -19 21 -3
v -20 23 2
v -19 23 2
v -20 23 1
v -19 23 1
v -18 23 1
v -15 23 1
v -18 23 -0
v -17 23 -0
v -16 23 -0
v -15 23 -0
v -18 23 -1
v -17 23 -1
v -18 23 -2
v -17 23 -2
v -16 23 -2
v -18 23 -3
v -17 23 -3
v -19 27 -0
v -18 27 -0
v -19 27 -1
v -18 27 -1
v -20 22 2
v -19 22 2
v -20 22 1
v -19 22 1
v -17 22 -0
v -16 22 -0
v -17 22 -1
v -16 22 -1
v -20 23 -2
v -19 23 -2
v -20 23 -3
v -19 23 -3
v -20 24 2
v -19 24 2
v -20 24 1
v -19 24 1
v -20 24 -1
v -17 24 -1
v -16 24 -1
v -20 24 -2
v -18 24 -2
v -17 24 -2
v -16 24 -2
v -18 24 -3
v -17 24 -3
v -16 25 1
v -15 25 1
v -19 25 -0
v -17 25 -0
v -16 25 -0
v -15 25 -0
v -19 25 -1
v -17 25 -1
v -18 26 1
v -16 26 1
v -18 26 -0
v -17 26 -0
v -17 26 -1
v -16 26 -1
v -20 27 1
v -18 27 1
v -20 27 -0
v -18 27 -0
v -20 28 -0
v -18 28 -0
v -20 28 -1
v -18 28 -1

# faces
f 4/3/1 2/3/1 1/3/1
f 5/3/1 2/3/1 4/3/1
f 8/3/1 4/3/1 3/3/1
f 8/3/1 6/3/1 5/3/1
f 8/3/1 5/3/1 4/3/1
f 9/3/1 6/3/1 8/3/1
f 11/3/1 8/3/1 7/3/1
f 11/3/1 10/3/1 9/3/1
f 11/3/1 9/3/1 8/3/1
f 12/3/1 10/3/1 11/3/1
f 13/3/1 10/3/1 12/3/1
f 15/2/1 13/2/1 12/2/1
f 16/2/1 13/2/1 15/2/1
f 17/2/1 13/2/1 16/2/1
f 18/2/1 15/2/1 14/2/1
f 18/2/1 16/2/1 15/2/1
f 19/2/1 16/2/1 18/2/1
f 20/2/1 16/2/1 19/2/1
f 21/2/1 16/2/1 20/2/1
f 22/2/1 16/2/1 21/2/1
f 23/2/1 20/2/1 19/2/1
f 23/1/1 21/1/1 20/1/1
f 24/1/1 21/1/1 23/1/1
f 25/2/1 23/2/1 19/2/1
f 25/2/1 24/2/1 23/2/1
f 26/2/1 24/2/1 25/2/1
f 27/2/1 24/2/1 26/2/1
f 28/2/1 24/2/1 27/2/1
f 31/2/1 30/2/1 29/2/1
f 32/2/1 30/2/1 31/2/1
f 35/2/1 34/2/1 33/2/1
f 36/2/1 34/2/1 35/2/1
f 37/3/2 38/3/2 40/3/2
f 40/3/2 38/3/2 41/3/2
f 39/3/2 40/3/2 44/3/2
f 44/3/2 40/3/2 45/3/2
f 41/3/2 42/3/2 46/3/2
f 46/3/2 42/3/2 47/3/2
f 43/3/2 44/3/2 49/3/2
f 49/3/2 44/3/2 50/3/2
f 47/3/2 48/3/2 51/3/2
f 51/3/2 48/3/2 52/3/2
f 51/2/2 52/2/2 55/2/2
f 55/2/2 52/2/2 56/2/2
f 53/2/2 54/2/2 57/2/2
f 57/2/2 54/2/2 58/2/2
f 59/2/2 60/2/2 61/2/2
f 61/2/2 60/2/2 62/2/2
f 63/3/2 64/3/2 66/3/2
f 66/3/2 64/3/2 67/3/2
f 65/3/2 66/3/2 69/3/2
f 69/3/2 66/3/2 70/3/2
f 67/3/2 68/3/2 71/3/2
f 71/3/2 68/3/2 72/3/2
f 69/2/2 70/2/2 73/2/2
f 73/2/2 70/2/2 74/2/2
f 71/2/2 72/2/2 75/2/2
f 75/2/2 72/2/2 76/2/2
f 77/2/2 78/2/2 79/2/2
f 79/2/2 78/2/2 80/2/2
f 80/2/2 81/2/2 82/2/2
f 82/2/2 81/2/2 83/2/2
f 84/2/2 85/2/2 86/2/2
f 86/2/2 85/2/2 87/2/2
f 88/2/2 89/2/2 90/2/2
f 90/2/2 89/2/2 91/2/2
f 92/3/2 93/3/2 94/3/2
f 94/3/2 93/3/2 95/3/2
f 96/2/2 97/2/2 98/2/2
f 98/2/2 97/2/2 99/2/2
f 96/2/2 98/2/2 101/2/2
f 100/2/2 101/2/2 102/2/2
f 101/2/2 98/2/2 103/2/2
f 102/2/2 101/2/2 103/2/2
f 104/2/2 105/2/2 106/2/2
f 106/2/2 105/2/2 107/2/2
f 112/3/3 109/3/3 108/3/3
f 113/3/3 109/3/3 112/3/3
f 114/2/3 111/2/3 110/2/3
f 115/2/3 111/2/3 114/2/3
f 122/3/3 117/3/3 116/3/3
f 123/3/3 117/3/3 122/3/3
f 124/2/3 119/2/3 118/2/3
f 125/2/3 119/2/3 124/2/3
f 126/2/3 121/2/3 120/2/3
f 127/3/3 124/3/3 123/3/3
f 128/2/3 125/2/3 124/2/3
f 128/3/3 124/3/3 127/3/3
f 128/2/3 126/2/3 125/2/3
f 129/2/3 126/2/3 128/2/3
f 130/2/3 121/2/3 126/2/3
f 130/2/3 126/2/3 129/2/3
f 131/2/3 121/2/3 130/2/3
f 132/2/3 121/2/3 131/2/3
f 133/2/3 121/2/3 132/2/3
f 134/2/3 130/2/3 129/2/3
f 134/1/3 131/1/3 130/1/3
f 135/2/3 132/2/3 131/2/3
f 135/1/3 131/1/3 134/1/3
f 136/2/3 132/2/3 135/2/3
f 137/2/3 134/2/3 129/2/3
f 137/2/3 135/2/3 134/2/3
f 138/2/3 135/2/3 137/2/3
f 143/3/3 140/3/3 139/3/3
f 144/3/3 140/3/3 143/3/3
f 146/3/3 145/3/3 144/3/3
f 147/3/3 145/3/3 146/3/3
f 150/2/3 142/2/3 141/2/3
f 151/2/3 142/2/3 150/2/3
f 152/2/3 149/2/3 148/2/3
f 152/3/3 148/3/3 147/3/3
f 153/2/3 149/2/3 152/2/3
f 154/3/3 152/3/3 147/3/3
f 155/3/3 152/3/3 154/3/3
f 156/2/4 157/2/4 158/2/4
f 158/2/4 157/2/4 159/2/4
f 156/2/4 158/2/4 160/2/4
f 160/2/4 158/2/4 161/2/4
f 162/2/4 163/2/4 164/2/4
f 164/2/4 163/2/4 165/2/4
f 166/3/4 167/3/4 171/3/4
f 171/3/4 167/3/4 172/3/4
f 169/2/4 170/2/4 174/2/4
f 168/1/4 169/1/4 174/1/4
f 174/2/4 170/2/4 175/2/4
f 172/3/4 173/3/4 176/3/4
f 176/3/4 173/3/4 177/3/4
f 175/2/4 170/2/4 180/2/4
f 180/2/4 170/2/4 181/2/4
f 178/2/4 179/2/4 182/2/4
f 177/3/4 178/3/4 182/3/4
f 182/2/4 179/2/4 183/2/4
f 168/1/4 174/1/4 184/1/4
f 184/1/4 174/1/4 185/1/4
f 177/3/4 182/3/4 187/3/4
f 187/3/4 182/3/4 188/3/4
f 185/2/4 186/2/4 189/2/4
f 184/2/4 185/2/4 189/2/4
f 189/2/4 186/2/4 190/2/4
f 191/3/4 192/3/4 195/3/4
f 195/3/4 192/3/4 196/3/4
f 193/2/4 194/2/4 198/2/4
f 196/3/4 197/3/4 199/3/4
f 197/2/4 198/2/4 200/2/4
f 199/3/4 197/3/4 200/3/4
f 198/2/4 194/2/4 201/2/4
f 200/2/4 198/2/4 201/2/4
f 201/2/4 194/2/4 202/2/4
f 203/2/4 204/2/4 205/2/4
f 205/2/4 204/2/4 206/2/4
f 207/3/4 208/3/4 210/3/4
f 208/2/4 209/2/4 211/2/4
f 210/3/4 208/3/4 211/3/4
f 211/2/4 209/2/4 212/2/4
f 213/2/4 214/2/4 215/2/4
f 215/2/4 214/2/4 216/2/4
f 219/3/5 218/3/5 217/3/5
f 220/3/5 218/3/5 219/3/5
f 223/3/5 222/3/5 221/3/5
f 224/3/5 222/3/5 223/3/5
f 227/3/5 225/3/5 224/3/5
f 228/3/5 225/3/5 227/3/5
f 229/3/5 227/3/5 226/3/5
f 230/3/5 227/3/5 229/3/5
f 233/3/5 232/3/5 231/3/5
f 234/3/5 232/3/5 233/3/5
f 236/3/5 235/3/5 234/3/5
f 237/3/5 235/3/5 236/3/5
f 240/3/5 238/3/5 237/3/5
f 241/3/5 238/3/5 240/3/5
f 243/3/5 240/3/5 239/3/5
f 244/3/5 240/3/5 243/3/5
f 245/3/5 243/3/5 242/3/5
f 246/3/5 243/3/5 245/3/5
f 249/2/5 248/2/5 247/2/5
f 250/2/5 248/2/5 249/2/5
f 253/2/5 252/2/5 251/2/5
f 254/2/5 252/2/5 253/2/5
f 255/2/5 252/2/5 254/2/5
f 256/2/5 252/2/5 255/2/5
f 258/2/5 255/2/5 254/2/5
f 259/2/5 258/2/5 257/2/5
f 260/2/5 255/2/5 258/2/5
f 260/2/5 258/2/5 259/2/5
f 261/2/5 255/2/5 260/2/5
f 262/2/5 260/2/5 259/2/5
f 263/2/5 260/2/5 262/2/5
f 266/2/5 265/2/5 264/2/5
f 267/2/5 265/2/5 266/2/5
f 268/3/6 269/3/6 270/3/6
f 270/3/6 269/3/6 271/3/6
f 272/3/6 273/3/6 274/3/6
f 274/3/6 273/3/6 275/3/6
f 276/2/6 277/2/6 278/2/6
f 278/2/6 277/2/6 279/2/6
f 280/2/6 281/2/6 282/2/6
f 282/2/6 281/2/6 283/2/6
f 284/2/6 285/2/6 287/2/6
f 285/2/6 286/2/6 287/2/6
f 287/2/6 286/2/6 288/2/6
f 288/2/6 286/2/6 289/2/6
f 289/2/6 286/2/6 290/2/6
f 288/2/6 289/2/6 291/2/6
f 291/2/6 289/2/6 292/2/6
f 293/2/6 294/2/6 297/2/6
f 297/2/6 294/2/6 298/2/6
f 295/1/6 296/1/6 299/1/6
f 299/1/6 296/1/6 300/1/6
f 301/2/6 302/2/6 303/2/6
f 303/2/6 302/2/6 304/2/6
f 304/2/6 302/2/6 305/2/6
f 305/2/6 302/2/6 306/2/6
f 307/2/6 308/2/6 309/2/6
f 309/2/6 308/2/6 310/2/6
f 311/2/6 312/2/6 313/2/6
f 313/2/6 312/2/6 314/2/6
