# Blender v2.78 (sub 0) OBJ File: ''
# www.blender.org
mtllib untitled.mtl
o ChestMesh.001_Cube.003
v 0.633526 0.005109 -0.849810
v 0.629189 1.187747 -0.848074
v 0.633526 0.002581 0.872353
v 0.629189 1.185218 0.874090
v -0.595579 0.000602 -0.849817
v -0.599916 1.183240 -0.848081
v -0.595579 -0.001926 0.872347
v -0.599916 1.180712 0.874083
vt 0.0262 0.3384
vt 0.0262 0.6507
vt 0.4809 0.6507
vt 0.4809 0.3384
vt 0.4979 0.6610
vt 0.4979 0.9770
vt 0.8263 0.9770
vt 0.8263 0.6610
vt 0.0213 0.6626
vt 0.0213 0.9770
vt 0.4791 0.9770
vt 0.4791 0.6626
vt 0.4971 0.6675
vt 0.4971 0.9793
vt 0.8212 0.9793
vt 0.8212 0.6675
vt 0.0324 0.0123
vt 0.0324 0.3273
vt 0.4738 0.3273
vt 0.4738 0.0123
vt 0.9461 0.3265
vt 0.9461 0.0113
vt 0.5045 0.0113
vt 0.5045 0.3265
vn 1.0000 0.0037 0.0000
vn 0.0000 -0.0015 1.0000
vn -1.0000 -0.0037 -0.0000
vn -0.0000 0.0015 -1.0000
vn 0.0037 -1.0000 -0.0015
vn -0.0037 1.0000 0.0015
usemtl None
s 1
f 1/1/1 2/2/1 4/3/1 3/4/1
f 3/5/2 4/6/2 8/7/2 7/8/2
f 7/9/3 8/10/3 6/11/3 5/12/3
f 5/13/4 6/14/4 2/15/4 1/16/4
f 3/17/5 7/18/5 5/19/5 1/20/5
f 8/21/6 4/22/6 2/23/6 6/24/6
